<svg height="499" viewBox="0 0 1920 499" width="1920" xmlns="http://www.w3.org/2000/svg" xmlns:xlink="http://www.w3.org/1999/xlink"><radialGradient id="a" cx=".5" cy=".5" gradientUnits="objectBoundingBox" r=".595"><stop offset="0" stop-color="#538bec"/><stop offset="1" stop-color="#1058d6"/></radialGradient><linearGradient id="b" x1=".504" x2=".5" xlink:href="#a" y1="1.064" y2="-.313"/><path d="m0 0h1920v499h-1920z" fill="url(#a)"/><path d="m0 198.837 16 16c16 16 48 48 80 26.7 32-21.7 64-95.7 96-112 32-15.7 64 26.3 96 42.6 32 15.7 64 5.7 96 0 32-5.3 64-5.3 96-16 32-10.3 64-32.3 96-5.3s64 101 96 138.7c32 37.3 64 37.3 96 5.3s64-96 96-128 64-32 96-42.7c32-10.3 64-32.3 96-5.3s64 101 96 138.7c32 37.3 64 37.3 96 5.3s64-96 96-117.3c32-21.7 64 .3 96 32 32 32.3 64 74.3 96 106.6 32 31.7 64 53.7 96 16 32-37.3 64-133.3 96-144 32-10.3 64 63.7 96 64 32-.3 64-74.3 80-112l16-37.3v-32h-1920z" fill="url(#b)" opacity=".48" transform="translate(0 -38.837)"/></svg>